<?xml version="1.0"?>
<svg xmlns:rdf="http://www.w3.org/1999/02/22-rdf-syntax-ns#" xmlns="http://www.w3.org/2000/svg" xmlns:cc="http://web.resource.org/cc/" xmlns:xlink="http://www.w3.org/1999/xlink" xmlns:dc="http://purl.org/dc/elements/1.1/" xmlns:svg="http://www.w3.org/2000/svg" id="svg2" viewBox="0 0 494.55 495.56" version="1.0">
  <defs id="defs3">
    <linearGradient id="linearGradient2867" y2="443.62" gradientUnits="userSpaceOnUse" x2="597.39" y1="443.62" x1="211.96">
      <stop id="stop2859" stop-color="#ccc" offset="0"/>
      <stop id="stop2861" stop-color="#ccc" stop-opacity="0" offset="1"/>
    </linearGradient>
  </defs>
  <g id="layer1" transform="translate(-156.54 -258.51)">
    <g id="g2869">
      <g id="g4548" stroke="#000" transform="translate(16.316 48.908)">
        <path id="path4544" d="m495.81 648.96c3.9 9.56-12.34 37.35-32.28 43.62-19.95 6.27-47.5 12.15-77.91 12.15-30.42 0-59.2-4.82-77.91-14.15-35.18-17.52-35.76-38.49-29.77-43.62 14.53-12.43 46.85-15.49 107.68-15.49 60.82 0 110.19-1.63 110.19 17.49z" stroke-width=".86898" fill="#cfbda5"/>
        <path id="path3655" d="m-197.83 341.61a110.13 45.888 0 1 1 -220.26 0 110.13 45.888 0 1 1 220.26 0z" fill="#cfbda5" transform="translate(693.57 309.88)"/>
        <path id="path3647" d="m-358.95 318.16a7.1381 6.1184 0 1 1 -14.27 0 7.1381 6.1184 0 1 1 14.27 0z" fill="lime" transform="translate(915.72 287.56)"/>
      </g>
      <rect id="rect3657" ry="18.104" height="94.225" width="77.91" stroke="#000" y="609.44" x="361.37" stroke-width=".58984" fill="#cfbda5"/>
      <rect id="rect1871" rx="30.144" ry="33.715" height="411.86" width="493.62" stroke="#000" y="258.97" x="157" stroke-width=".92576" fill="#c9bdab"/>
      <rect id="rect1873" rx=".10738" ry="34.874" height="291.61" width="385.42" stroke="#000" y="297.82" x="211.96" stroke-width="1.0362" fill="#1a1a1a"/>
      <path id="path2760" d="m-336.51 222.3a20.395 20.395 0 1 1 -40.79 0 20.395 20.395 0 1 1 40.79 0z" stroke="#000" fill="#9f9485" transform="translate(921.84 399.73)"/>
      <path id="path3649" d="m-420.13 313.06a14.276 13.256 0 1 1 -28.55 0 14.276 13.256 0 1 1 28.55 0z" stroke="#000" fill="#9f9485" transform="translate(675.06 316.12)"/>
      <path id="path3651" d="m-420.13 313.06a14.276 13.256 0 1 1 -28.55 0 14.276 13.256 0 1 1 28.55 0z" stroke="#000" fill="#9f9485" transform="translate(721.06 316.12)"/>
      <path id="path3653" d="m-420.13 313.06a14.276 13.256 0 1 1 -28.55 0 14.276 13.256 0 1 1 28.55 0z" stroke="#000" fill="#9f9485" transform="translate(765.06 316.12)"/>
      <path id="path4553" d="m-471.12 223.32a9.1776 9.1776 0 1 1 -18.35 0 9.1776 9.1776 0 1 1 18.35 0z" stroke="#000" fill="lime" transform="matrix(.57852 0 0 .57852 843.81 526.49)"/>
      <rect id="rect1970" opacity=".61215" rx=".10738" ry="34.874" height="291.61" width="385.42" y="297.82" x="211.96" fill="url(#linearGradient2867)"/>
    </g>
  </g>
  <metadata>
    <rdf:RDF>
      <cc:Work>
        <dc:format>image/svg+xml</dc:format>
        <dc:type rdf:resource="http://purl.org/dc/dcmitype/StillImage"/>
        <cc:license rdf:resource="http://creativecommons.org/licenses/publicdomain/"/>
        <dc:publisher>
          <cc:Agent rdf:about="http://openclipart.org/">
            <dc:title>Openclipart</dc:title>
          </cc:Agent>
        </dc:publisher>
        <dc:title>monitor</dc:title>
        <dc:date>2006-12-27T03:16:53</dc:date>
        <dc:description>clip art, clipart, computer, computer, image, media, monitor, monitor, office, office, png, public domain, school, school, screen, screen, svg, technology, technology, </dc:description>
        <dc:source>http://openclipart.org/detail/2307/monitor-by-machovka</dc:source>
        <dc:creator>
          <cc:Agent>
            <dc:title>Machovka</dc:title>
          </cc:Agent>
        </dc:creator>
        <dc:subject>
          <rdf:Bag>
            <rdf:li>clip art</rdf:li>
            <rdf:li>clipart</rdf:li>
            <rdf:li>computer</rdf:li>
            <rdf:li>image</rdf:li>
            <rdf:li>media</rdf:li>
            <rdf:li>monitor</rdf:li>
            <rdf:li>office</rdf:li>
            <rdf:li>png</rdf:li>
            <rdf:li>public domain</rdf:li>
            <rdf:li>school</rdf:li>
            <rdf:li>screen</rdf:li>
            <rdf:li>svg</rdf:li>
            <rdf:li>technology</rdf:li>
          </rdf:Bag>
        </dc:subject>
      </cc:Work>
      <cc:License rdf:about="http://creativecommons.org/licenses/publicdomain/">
        <cc:permits rdf:resource="http://creativecommons.org/ns#Reproduction"/>
        <cc:permits rdf:resource="http://creativecommons.org/ns#Distribution"/>
        <cc:permits rdf:resource="http://creativecommons.org/ns#DerivativeWorks"/>
      </cc:License>
    </rdf:RDF>
  </metadata>
</svg>
